<svg id="visual" viewBox="0 0 900 600" width="900" height="600" xmlns="http://www.w3.org/2000/svg" xmlns:xlink="http://www.w3.org/1999/xlink" version="1.1"><path d="M0 49L13.7 48C27.3 47 54.7 45 82 45C109.3 45 136.7 47 163.8 45C191 43 218 37 245.2 40C272.3 43 299.7 55 327 62C354.3 69 381.7 71 409 70C436.3 69 463.7 65 491 65C518.3 65 545.7 69 573 62C600.3 55 627.7 37 654.8 37C682 37 709 55 736.2 65C763.3 75 790.7 77 818 72C845.3 67 872.7 55 886.3 49L900 43L900 0L886.3 0C872.7 0 845.3 0 818 0C790.7 0 763.3 0 736.2 0C709 0 682 0 654.8 0C627.7 0 600.3 0 573 0C545.7 0 518.3 0 491 0C463.7 0 436.3 0 409 0C381.7 0 354.3 0 327 0C299.7 0 272.3 0 245.2 0C218 0 191 0 163.8 0C136.7 0 109.3 0 82 0C54.7 0 27.3 0 13.7 0L0 0Z" fill="#56a630"></path><path d="M0 103L13.7 97C27.3 91 54.7 79 82 82C109.3 85 136.7 103 163.8 103C191 103 218 85 245.2 84C272.3 83 299.7 99 327 107C354.3 115 381.7 115 409 113C436.3 111 463.7 107 491 103C518.3 99 545.7 95 573 92C600.3 89 627.7 87 654.8 90C682 93 709 101 736.2 103C763.3 105 790.7 101 818 95C845.3 89 872.7 81 886.3 77L900 73L900 41L886.3 47C872.7 53 845.3 65 818 70C790.7 75 763.3 73 736.2 63C709 53 682 35 654.8 35C627.7 35 600.3 53 573 60C545.7 67 518.3 63 491 63C463.7 63 436.3 67 409 68C381.7 69 354.3 67 327 60C299.7 53 272.3 41 245.2 38C218 35 191 41 163.8 43C136.7 45 109.3 43 82 43C54.7 43 27.3 45 13.7 46L0 47Z" fill="#48a13b"></path><path d="M0 151L13.7 156C27.3 161 54.7 171 82 193C109.3 215 136.7 249 163.8 241C191 233 218 183 245.2 170C272.3 157 299.7 181 327 203C354.3 225 381.7 245 409 255C436.3 265 463.7 265 491 257C518.3 249 545.7 233 573 218C600.3 203 627.7 189 654.8 182C682 175 709 175 736.2 183C763.3 191 790.7 207 818 209C845.3 211 872.7 199 886.3 193L900 187L900 71L886.3 75C872.7 79 845.3 87 818 93C790.7 99 763.3 103 736.2 101C709 99 682 91 654.8 88C627.7 85 600.3 87 573 90C545.7 93 518.3 97 491 101C463.7 105 436.3 109 409 111C381.7 113 354.3 113 327 105C299.7 97 272.3 81 245.2 82C218 83 191 101 163.8 101C136.7 101 109.3 83 82 80C54.7 77 27.3 89 13.7 95L0 101Z" fill="#3a9c45"></path><path d="M0 247L13.7 254C27.3 261 54.7 275 82 287C109.3 299 136.7 309 163.8 295C191 281 218 243 245.2 239C272.3 235 299.7 265 327 294C354.3 323 381.7 351 409 357C436.3 363 463.7 347 491 336C518.3 325 545.7 319 573 316C600.3 313 627.7 313 654.8 305C682 297 709 281 736.2 271C763.3 261 790.7 257 818 258C845.3 259 872.7 265 886.3 268L900 271L900 185L886.3 191C872.7 197 845.3 209 818 207C790.7 205 763.3 189 736.2 181C709 173 682 173 654.8 180C627.7 187 600.3 201 573 216C545.7 231 518.3 247 491 255C463.7 263 436.3 263 409 253C381.7 243 354.3 223 327 201C299.7 179 272.3 155 245.2 168C218 181 191 231 163.8 239C136.7 247 109.3 213 82 191C54.7 169 27.3 159 13.7 154L0 149Z" fill="#2c974d"></path><path d="M0 337L13.7 343C27.3 349 54.7 361 82 366C109.3 371 136.7 369 163.8 357C191 345 218 323 245.2 318C272.3 313 299.7 325 327 348C354.3 371 381.7 405 409 411C436.3 417 463.7 395 491 385C518.3 375 545.7 377 573 373C600.3 369 627.7 359 654.8 351C682 343 709 337 736.2 337C763.3 337 790.7 343 818 348C845.3 353 872.7 357 886.3 359L900 361L900 269L886.3 266C872.7 263 845.3 257 818 256C790.7 255 763.3 259 736.2 269C709 279 682 295 654.8 303C627.7 311 600.3 311 573 314C545.7 317 518.3 323 491 334C463.7 345 436.3 361 409 355C381.7 349 354.3 321 327 292C299.7 263 272.3 233 245.2 237C218 241 191 279 163.8 293C136.7 307 109.3 297 82 285C54.7 273 27.3 259 13.7 252L0 245Z" fill="#1e9153"></path><path d="M0 385L13.7 392C27.3 399 54.7 413 82 412C109.3 411 136.7 395 163.8 377C191 359 218 339 245.2 337C272.3 335 299.7 351 327 379C354.3 407 381.7 447 409 454C436.3 461 463.7 435 491 424C518.3 413 545.7 417 573 416C600.3 415 627.7 409 654.8 398C682 387 709 371 736.2 365C763.3 359 790.7 363 818 368C845.3 373 872.7 379 886.3 382L900 385L900 359L886.3 357C872.7 355 845.3 351 818 346C790.7 341 763.3 335 736.2 335C709 335 682 341 654.8 349C627.7 357 600.3 367 573 371C545.7 375 518.3 373 491 383C463.7 393 436.3 415 409 409C381.7 403 354.3 369 327 346C299.7 323 272.3 311 245.2 316C218 321 191 343 163.8 355C136.7 367 109.3 369 82 364C54.7 359 27.3 347 13.7 341L0 335Z" fill="#118c59"></path><path d="M0 529L13.7 528C27.3 527 54.7 525 82 529C109.3 533 136.7 543 163.8 541C191 539 218 525 245.2 530C272.3 535 299.7 559 327 568C354.3 577 381.7 571 409 571C436.3 571 463.7 577 491 579C518.3 581 545.7 579 573 574C600.3 569 627.7 561 654.8 551C682 541 709 529 736.2 523C763.3 517 790.7 517 818 520C845.3 523 872.7 529 886.3 532L900 535L900 383L886.3 380C872.7 377 845.3 371 818 366C790.7 361 763.3 357 736.2 363C709 369 682 385 654.8 396C627.7 407 600.3 413 573 414C545.7 415 518.3 411 491 422C463.7 433 436.3 459 409 452C381.7 445 354.3 405 327 377C299.7 349 272.3 333 245.2 335C218 337 191 357 163.8 375C136.7 393 109.3 409 82 410C54.7 411 27.3 397 13.7 390L0 383Z" fill="#04865d"></path><path d="M0 601L13.7 601C27.3 601 54.7 601 82 601C109.3 601 136.7 601 163.8 601C191 601 218 601 245.2 601C272.3 601 299.7 601 327 601C354.3 601 381.7 601 409 601C436.3 601 463.7 601 491 601C518.3 601 545.7 601 573 601C600.3 601 627.7 601 654.8 601C682 601 709 601 736.2 601C763.3 601 790.7 601 818 601C845.3 601 872.7 601 886.3 601L900 601L900 533L886.3 530C872.7 527 845.3 521 818 518C790.7 515 763.3 515 736.2 521C709 527 682 539 654.8 549C627.7 559 600.3 567 573 572C545.7 577 518.3 579 491 577C463.7 575 436.3 569 409 569C381.7 569 354.3 575 327 566C299.7 557 272.3 533 245.2 528C218 523 191 537 163.8 539C136.7 541 109.3 531 82 527C54.7 523 27.3 525 13.7 526L0 527Z" fill="#008060"></path></svg>