<svg id="visual" viewBox="0 0 900 600" width="900" height="600" xmlns="http://www.w3.org/2000/svg" xmlns:xlink="http://www.w3.org/1999/xlink" version="1.1"><rect x="0" y="0" width="900" height="600" fill="#a9cd5b"></rect><defs><linearGradient id="grad1_0" x1="33.3%" y1="100%" x2="100%" y2="0%"><stop offset="20%" stop-color="#209e60" stop-opacity="1"></stop><stop offset="80%" stop-color="#209e60" stop-opacity="1"></stop></linearGradient></defs><defs><linearGradient id="grad1_1" x1="33.3%" y1="100%" x2="100%" y2="0%"><stop offset="20%" stop-color="#209e60" stop-opacity="1"></stop><stop offset="80%" stop-color="#6bb75c" stop-opacity="1"></stop></linearGradient></defs><defs><linearGradient id="grad1_2" x1="33.3%" y1="100%" x2="100%" y2="0%"><stop offset="20%" stop-color="#a9cd5b" stop-opacity="1"></stop><stop offset="80%" stop-color="#6bb75c" stop-opacity="1"></stop></linearGradient></defs><defs><linearGradient id="grad2_0" x1="0%" y1="100%" x2="66.7%" y2="0%"><stop offset="20%" stop-color="#209e60" stop-opacity="1"></stop><stop offset="80%" stop-color="#209e60" stop-opacity="1"></stop></linearGradient></defs><defs><linearGradient id="grad2_1" x1="0%" y1="100%" x2="66.7%" y2="0%"><stop offset="20%" stop-color="#6bb75c" stop-opacity="1"></stop><stop offset="80%" stop-color="#209e60" stop-opacity="1"></stop></linearGradient></defs><defs><linearGradient id="grad2_2" x1="0%" y1="100%" x2="66.7%" y2="0%"><stop offset="20%" stop-color="#6bb75c" stop-opacity="1"></stop><stop offset="80%" stop-color="#a9cd5b" stop-opacity="1"></stop></linearGradient></defs><g transform="translate(900, 600)"><path d="M-513.8 0C-495.2 -49.5 -476.5 -99.1 -458.4 -148.9C-440.3 -198.8 -422.7 -249 -389.9 -283.3C-357.1 -317.6 -309.1 -336 -270.4 -372.1C-231.7 -408.3 -202.3 -462.1 -158.8 -488.6C-115.3 -515.2 -57.6 -514.5 0 -513.8L0 0Z" fill="#8ac25b"></path><path d="M-342.5 0C-330.1 -33 -317.7 -66.1 -305.6 -99.3C-293.5 -132.5 -281.8 -166 -260 -188.9C-238.1 -211.7 -206.1 -224 -180.3 -248.1C-154.4 -272.2 -134.9 -308.1 -105.8 -325.8C-76.8 -343.5 -38.4 -343 0 -342.5L0 0Z" fill="#4baa5e"></path><path d="M-171.3 0C-165.1 -16.5 -158.8 -33 -152.8 -49.6C-146.8 -66.3 -140.9 -83 -130 -94.4C-119 -105.9 -103 -112 -90.1 -124C-77.2 -136.1 -67.4 -154 -52.9 -162.9C-38.4 -171.7 -19.2 -171.5 0 -171.3L0 0Z" fill="#209e60"></path></g><g transform="translate(0, 0)"><path d="M513.8 0C509.5 54.4 505.1 108.8 488.6 158.8C472.1 208.8 443.5 254.4 410.2 298C376.9 341.6 339 383.1 292.7 402.9C246.4 422.7 191.7 420.7 141.5 435.6C91.3 450.4 45.7 482.1 0 513.8L0 0Z" fill="#8ac25b"></path><path d="M342.5 0C339.6 36.3 336.8 72.5 325.8 105.8C314.8 139.2 295.6 169.6 273.4 198.7C251.3 227.7 226 255.4 195.1 268.6C164.3 281.8 127.8 280.5 94.4 290.4C60.9 300.3 30.4 321.4 0 342.5L0 0Z" fill="#4baa5e"></path><path d="M171.3 0C169.8 18.1 168.4 36.3 162.9 52.9C157.4 69.6 147.8 84.8 136.7 99.3C125.6 113.9 113 127.7 97.6 134.3C82.1 140.9 63.9 140.2 47.2 145.2C30.4 150.1 15.2 160.7 0 171.3L0 0Z" fill="#209e60"></path></g></svg>