<svg id="visual" viewBox="0 0 900 600" width="900" height="600" xmlns="http://www.w3.org/2000/svg" xmlns:xlink="http://www.w3.org/1999/xlink" version="1.1"><path d="M0 146L18.8 153.2C37.7 160.3 75.3 174.7 112.8 179.8C150.3 185 187.7 181 225.2 169.2C262.7 157.3 300.3 137.7 337.8 139.5C375.3 141.3 412.7 164.7 450.2 176.5C487.7 188.3 525.3 188.7 562.8 184.8C600.3 181 637.7 173 675.2 160.3C712.7 147.7 750.3 130.3 787.8 130.3C825.3 130.3 862.7 147.7 881.3 156.3L900 165L900 0L881.3 0C862.7 0 825.3 0 787.8 0C750.3 0 712.7 0 675.2 0C637.7 0 600.3 0 562.8 0C525.3 0 487.7 0 450.2 0C412.7 0 375.3 0 337.8 0C300.3 0 262.7 0 225.2 0C187.7 0 150.3 0 112.8 0C75.3 0 37.7 0 18.8 0L0 0Z" fill="#2a9248" stroke-linecap="round" stroke-linejoin="miter"></path></svg>